<svg width="21" height="17" viewBox="0 0 21 17" fill="none" xmlns="http://www.w3.org/2000/svg">
<path d="M6.93411 16.7895C14.2106 16.7895 18.1898 10.664 18.1898 5.3522C18.1898 5.17824 18.1863 5.00507 18.1786 4.83262C18.9529 4.26334 19.6211 3.55847 20.1519 2.75107C19.4431 3.07129 18.6803 3.28681 17.8801 3.38398C18.6969 2.88634 19.3239 2.09906 19.6198 1.16063C18.8432 1.62873 17.9936 1.95871 17.1077 2.13636C16.3858 1.35501 15.3581 0.866333 14.2201 0.866333C12.0355 0.866333 10.2639 2.66652 10.2639 4.88553C10.2639 5.201 10.2987 5.50776 10.3665 5.8021C7.07865 5.63399 4.16319 4.03444 2.21201 1.60222C1.86059 2.21567 1.67574 2.91287 1.67636 3.62263C1.67636 5.01725 2.37473 6.24839 3.43679 6.96867C2.80857 6.94917 2.19414 6.77675 1.64516 6.4659C1.64457 6.48278 1.64457 6.49922 1.64457 6.51725C1.64457 8.46397 3.00817 10.0894 4.8183 10.4577C4.47833 10.5517 4.12752 10.5993 3.77516 10.5991C3.5207 10.5991 3.2727 10.5737 3.03168 10.5267C3.53532 12.1238 4.99571 13.2861 6.72719 13.3186C5.3732 14.3969 3.66759 15.0392 1.81384 15.0392C1.49849 15.0395 1.1834 15.0209 0.870209 14.9835C2.621 16.1238 4.6999 16.7892 6.93431 16.7892" fill="#03045E"/>
</svg>
